
<svg xmlns="http://www.w3.org/2000/svg" viewBox="0 0 210 297" height="297" width="210">
   <defs>
      <rect height="96.8" width="116.4" y="99" x="51.4" />
   </defs>
   <path d="m36.8 199.2c8 4.6 26.9 8.8 46.3 8.8 43.1 0 69.4-17.4 69.4-39.8 0-15.9-13.1-26-36.9-34.4-20-7.5-29.7-13.4-29.7-23.9 0-10.5 14.3-21 38-21 15.4-0.2 27.4 3.6 33.4 5.9l8.6-12.8c-6.9-3.1-20.9-6.9-39.4-6.9-35.4 0-65.1 14.9-65.1 37.9 0 14 13.7 24.3 38.3 33.1 20 7.5 28.3 14.5 28.3 24.1 0 15.7-20 24.3-41.7 24.3-16 0-30.6-3.4-40.9-8.2z" style="-inkscape-font-specification:'Myriad Pro Italic';font-family:'Myriad Pro';font-size:10px;font-style:italic;line-height:1;stroke-width:20;white-space:pre" />
</svg>